<svg xmlns="http://www.w3.org/2000/svg" width="1200" height="630" viewBox="0 0 1200 630">
  <defs>
    <linearGradient id="bg" x1="0" y1="0" x2="1" y2="1">
      <stop offset="0" stop-color="#f0f9ff"/>
      <stop offset="0.45" stop-color="#ffffff"/>
      <stop offset="1" stop-color="#ecfdf5"/>
    </linearGradient>
    <linearGradient id="card" x1="0" y1="0" x2="1" y2="1">
      <stop offset="0" stop-color="#ffffff"/>
      <stop offset="1" stop-color="#f8fffd"/>
    </linearGradient>
    <linearGradient id="badge" x1="0" y1="0" x2="1" y2="1">
      <stop offset="0" stop-color="#0ea5e9"/>
      <stop offset="1" stop-color="#14b8a6"/>
    </linearGradient>
    <filter id="shadow" x="-20%" y="-20%" width="140%" height="140%">
      <feDropShadow dx="0" dy="20" stdDeviation="28" flood-color="#0f2435" flood-opacity="0.14"/>
    </filter>
  </defs>
  <rect width="1200" height="630" fill="url(#bg)"/>
  <circle cx="100" cy="80" r="210" fill="#bae6fd" opacity="0.45"/>
  <circle cx="1050" cy="120" r="260" fill="#99f6e4" opacity="0.45"/>
  <circle cx="910" cy="580" r="210" fill="#fed7aa" opacity="0.22"/>
  <rect x="60" y="60" width="1080" height="510" rx="44" fill="url(#card)" stroke="#cfeff6" stroke-width="3" filter="url(#shadow)"/>
  <circle cx="300" cy="315" r="150" fill="#e0f7ff" stroke="#a5f3fc" stroke-width="8"/>
  <path d="M220 356c35-38 125-38 160 0v74H220z" fill="#0f766e"/>
  <path d="M250 355l50 42 50-42" fill="#0b625c"/>
  <rect x="274" y="300" width="52" height="70" rx="24" fill="#d99062"/>
  <circle cx="300" cy="258" r="72" fill="#efb17c"/>
  <path d="M232 247c15-59 120-72 146 0H232z" fill="#334155"/>
  <path d="M220 248c12-67 148-67 160 0z" fill="#facc15" stroke="#d97706" stroke-width="4"/>
  <rect x="214" y="244" width="172" height="26" rx="13" fill="#f59e0b"/>
  <circle cx="270" cy="257" r="7" fill="#0f2435"/>
  <circle cx="330" cy="257" r="7" fill="#0f2435"/>
  <path d="M272 292c20 22 45 22 65 0" fill="none" stroke="#7c4a31" stroke-width="5" stroke-linecap="round"/>
  <path d="M170 426l74-74" stroke="#2563eb" stroke-width="16" stroke-linecap="round"/>
  <circle cx="170" cy="426" r="17" fill="none" stroke="#2563eb" stroke-width="9"/>
  <circle cx="244" cy="352" r="17" fill="none" stroke="#2563eb" stroke-width="9"/>
  <path d="M420 185l-42 102h42l-34 104 86-140h-45l35-66z" fill="#f59e0b"/>
  <path d="M430 334c38 48 55 76 55 106 0 39-31 68-69 68s-69-29-69-68c0-30 17-58 55-106 8-10 20-10 28 0z" fill="#0891b2" opacity="0.95"/>
  <text x="520" y="210" font-family="Arial, Helvetica, sans-serif" font-size="58" font-weight="800" fill="#0f2435">Gotta Plumbing &amp;</text>
  <text x="520" y="282" font-family="Arial, Helvetica, sans-serif" font-size="58" font-weight="800" fill="#0f2435">Electrical Services</text>
  <text x="520" y="350" font-family="Arial, Helvetica, sans-serif" font-size="30" font-weight="600" fill="#5d7185">Plumbing • Electrical • Riyadh</text>
  <rect x="520" y="395" width="350" height="70" rx="35" fill="#ecfdf5" stroke="#bbf7d0" stroke-width="2"/>
  <text x="555" y="442" font-family="Arial, Helvetica, sans-serif" font-size="38" font-weight="800" fill="#0f766e">0590687073</text>
  <rect x="520" y="485" width="165" height="52" rx="26" fill="#eff6ff" stroke="#bfdbfe" stroke-width="2"/>
  <text x="552" y="519" font-family="Arial, Helvetica, sans-serif" font-size="24" font-weight="800" fill="#2563eb">Plumber</text>
  <rect x="704" y="485" width="205" height="52" rx="26" fill="#fff7ed" stroke="#fed7aa" stroke-width="2"/>
  <text x="735" y="519" font-family="Arial, Helvetica, sans-serif" font-size="24" font-weight="800" fill="#b45309">Electrician</text>
</svg>
